<svg width="24" height="24" viewBox="0 0 24 24" fill="none" xmlns="http://www.w3.org/2000/svg">
<path d="M5.57025 7.88697C5.2845 6.00147 6.615 4.30497 8.6475 3.68247C9.00838 3.57201 9.3978 3.6034 9.73633 3.77023C10.0749 3.93705 10.337 4.22675 10.4692 4.58022L11.121 6.32022C11.2258 6.60011 11.2446 6.90493 11.175 7.19557C11.1053 7.48621 10.9505 7.74943 10.7302 7.95147L8.7915 9.72972C8.69588 9.81756 8.62463 9.92866 8.58468 10.0522C8.54473 10.1757 8.53743 10.3075 8.5635 10.4347L8.58075 10.5127L8.62875 10.7085C8.6715 10.8735 8.736 11.106 8.82675 11.3835C9.00675 11.9347 9.294 12.6757 9.7215 13.416C10.149 14.1562 10.647 14.7757 11.034 15.207C11.2356 15.4315 11.4462 15.6477 11.6655 15.855L11.7255 15.9105C11.8225 15.9964 11.94 16.0557 12.0667 16.0826C12.1934 16.1095 12.325 16.1032 12.4485 16.0642L14.958 15.2745C15.2431 15.1848 15.5485 15.1824 15.835 15.2676C16.1215 15.3527 16.3761 15.5214 16.566 15.7522L17.7532 17.1937C18.2482 17.7937 18.1897 18.6757 17.6205 19.206C16.065 20.6557 13.926 20.9535 12.438 19.7565C10.6141 18.2854 9.0765 16.4913 7.902 14.4637C6.71779 12.4375 5.92669 10.2067 5.57025 7.88697ZM10.1347 10.533L11.7442 9.05697C12.1847 8.65289 12.4944 8.12645 12.6337 7.54517C12.7729 6.96388 12.7353 6.35425 12.5257 5.79447L11.8732 4.05447C11.6071 3.34356 11.0798 2.76094 10.3988 2.42536C9.71794 2.08979 8.93469 2.02652 8.20875 2.24847C5.685 3.02172 3.6585 5.28447 4.0875 8.11122C4.47225 10.6177 5.32644 13.0292 6.60525 15.219C7.87205 17.4055 9.53042 19.3402 11.4975 20.9265C13.7287 22.719 16.7092 22.1077 18.6435 20.304C19.1969 19.7881 19.5328 19.0806 19.5825 18.3257C19.6323 17.5707 19.3922 16.8252 18.9112 16.2412L17.724 14.7997C17.3441 14.338 16.8349 14.0004 16.2617 13.8302C15.6886 13.6599 15.0776 13.6648 14.5072 13.8442L12.4245 14.4997C12.3313 14.4038 12.24 14.3061 12.1507 14.2065C11.7227 13.7329 11.344 13.217 11.0205 12.6667C10.7056 12.1113 10.448 11.5253 10.2517 10.9177C10.2101 10.7905 10.1711 10.6625 10.1347 10.5337" fill="#929EAE"/>
</svg>
