<svg width="12" height="16" viewBox="0 0 12 16" fill="none" xmlns="http://www.w3.org/2000/svg">
<path fill-rule="evenodd" clip-rule="evenodd" d="M0.166504 1.14167C0.170992 0.798365 0.448202 0.521155 0.791504 0.516667L0.783171 0.5C1.12835 0.5 1.40817 0.779822 1.40817 1.125V1.39167H6.62484C7.38156 1.349 8.03011 1.92673 8.07484 2.68333V2.75C8.11957 3.5066 8.76812 4.08433 9.52484 4.04167H10.2832C11.0354 3.9986 11.6837 4.56544 11.7415 5.31667V9.73333C11.6968 10.4899 11.0482 11.0677 10.2915 11.025H5.2915C4.53478 11.0677 3.88624 10.4899 3.8415 9.73333V9.68333C3.79677 8.92673 3.14823 8.349 2.3915 8.39167H1.4165V15.3083C1.4165 15.6535 1.13668 15.9333 0.791504 15.9333C0.446326 15.9333 0.166504 15.6535 0.166504 15.3083V1.14167ZM6.74984 2.71667C6.70901 2.70486 6.66567 2.70486 6.62484 2.71667V2.73333H1.49151V7.08333H2.39151C3.84861 7.04486 5.0732 8.16987 5.15817 9.625C5.19952 9.63232 5.24183 9.63232 5.28317 9.625H10.2832C10.3245 9.63232 10.3668 9.63232 10.4082 9.625V5.31667C10.3673 5.30486 10.324 5.30486 10.2832 5.31667H9.52484C8.0429 5.35884 6.80415 4.19821 6.74984 2.71667Z" fill="black"/>
</svg>
