<svg width="24" height="24" viewBox="0 0 24 24" fill="none" xmlns="http://www.w3.org/2000/svg">
<path fill-rule="evenodd" clip-rule="evenodd" d="M9.188 17L11.1 19.55C11.55 20.15 12.45 20.15 12.9 19.55L14.812 17H18C19.657 17 21 15.657 21 14V8C21 6.343 19.657 5 18 5H6C4.343 5 3 6.343 3 8V14C3 15.657 4.343 17 6 17H9.188Z" stroke="#929EAE" stroke-width="1.3" stroke-linecap="round" stroke-linejoin="round"/>
<path d="M12.177 11.3228C12.275 11.4208 12.275 11.5788 12.177 11.6768C12.079 11.7748 11.921 11.7748 11.823 11.6768C11.725 11.5788 11.725 11.4208 11.823 11.3228C11.921 11.2248 12.079 11.2258 12.177 11.3228" stroke="#929EAE" stroke-width="1.3" stroke-linecap="round" stroke-linejoin="round"/>
<path d="M16.177 11.3228C16.275 11.4208 16.275 11.5788 16.177 11.6768C16.079 11.7748 15.921 11.7748 15.823 11.6768C15.725 11.5788 15.725 11.4208 15.823 11.3228C15.921 11.2248 16.079 11.2258 16.177 11.3228" stroke="#929EAE" stroke-width="1.3" stroke-linecap="round" stroke-linejoin="round"/>
<path d="M8.177 11.3228C8.275 11.4208 8.275 11.5788 8.177 11.6768C8.079 11.7748 7.921 11.7748 7.823 11.6768C7.725 11.5788 7.725 11.4208 7.823 11.3228C7.921 11.2248 8.079 11.2258 8.177 11.3228" stroke="#929EAE" stroke-width="1.3" stroke-linecap="round" stroke-linejoin="round"/>
</svg>
