<svg width="24" height="24" viewBox="0 0 24 24" fill="none" xmlns="http://www.w3.org/2000/svg">
<path fill-rule="evenodd" clip-rule="evenodd" d="M2 12.0801C2 6.51309 6.51297 2.00012 12.08 2.00012C12.8206 1.9964 13.5591 2.08031 14.28 2.25012C11.4268 3.06703 9.55951 5.79948 9.83498 8.75447C10.1104 11.7095 12.4507 14.0497 15.4057 14.3251C18.3606 14.6006 21.0931 12.7333 21.91 9.88012C22.0798 10.601 22.1637 11.3395 22.16 12.0801C22.16 17.6471 17.647 22.1601 12.08 22.1601C6.51297 22.1601 2 17.6471 2 12.0801ZM10.543 13.6163C7.92799 11.0038 7.54836 6.8978 9.64 3.85012C5.70314 5.01937 3.14688 8.81441 3.54276 12.9021C3.93865 16.9898 7.17565 20.2238 11.2637 20.6158C15.3518 21.0079 19.1444 18.4481 20.31 14.5101C17.2643 16.6046 13.1579 16.2288 10.543 13.6163Z" fill="#929EAE"/>
</svg>
