<svg width="18" height="18" viewBox="0 0 18 18" fill="none" xmlns="http://www.w3.org/2000/svg">
<path d="M6.20817 5.32508C5.96191 5.09562 5.57816 5.10239 5.34015 5.3404C5.10214 5.57841 5.09537 5.96216 5.32484 6.20842L8.47484 9.35842V13.2667C8.47484 13.6119 8.75466 13.8917 9.09984 13.8917C9.44502 13.8917 9.72484 13.6119 9.72484 13.2667V9.10008C9.72469 8.93438 9.65875 8.77551 9.5415 8.65842L6.20817 5.32508Z" fill="black"/>
<path fill-rule="evenodd" clip-rule="evenodd" d="M7.33317 0.666748H10.8665C12.6346 0.666748 14.3303 1.36913 15.5806 2.61937C16.8308 3.86961 17.5332 5.56531 17.5332 7.33342V10.8667C17.5332 14.5486 14.5484 17.5334 10.8665 17.5334H7.33317C3.65127 17.5334 0.666504 14.5486 0.666504 10.8667V7.33342C0.666504 3.65152 3.65127 0.666748 7.33317 0.666748ZM10.8665 16.2834C13.8561 16.2788 16.2786 13.8564 16.2832 10.8667V7.33342C16.2786 4.34378 13.8561 1.92134 10.8665 1.91675H7.33317C4.34353 1.92134 1.92109 4.34378 1.9165 7.33342V10.8667C1.92109 13.8564 4.34353 16.2788 7.33317 16.2834H10.8665Z" fill="black"/>
</svg>
