<svg width="18" height="19" viewBox="0 0 18 19" fill="none" xmlns="http://www.w3.org/2000/svg">
<path d="M12.7498 6.79992H5.24984C4.90466 6.79992 4.62484 7.07974 4.62484 7.42492C4.62484 7.7701 4.90466 8.04992 5.24984 8.04992H12.7498C13.095 8.04992 13.3748 7.7701 13.3748 7.42492C13.3748 7.07974 13.095 6.79992 12.7498 6.79992Z" fill="black"/>
<path fill-rule="evenodd" clip-rule="evenodd" d="M13.0748 2.97492H13.1665C15.4677 2.97492 17.3332 4.8404 17.3332 7.14158V14.6416C17.3332 16.9428 15.4677 18.8083 13.1665 18.8083H4.83317C3.7281 18.8083 2.66829 18.3693 1.88689 17.5879C1.10549 16.8065 0.666504 15.7467 0.666504 14.6416V7.14158C0.666504 4.8404 2.53198 2.97492 4.83317 2.97492H4.90817V1.45825C4.90817 1.11307 5.18799 0.833252 5.53317 0.833252C5.87835 0.833252 6.15817 1.11307 6.15817 1.45825V2.97492H11.8248V1.45825C11.8248 1.11307 12.1047 0.833252 12.4498 0.833252C12.795 0.833252 13.0748 1.11307 13.0748 1.45825V2.97492ZM13.1665 17.5583C14.7773 17.5583 16.0832 16.2524 16.0832 14.6416V7.14158C16.0832 5.53075 14.7773 4.22492 13.1665 4.22492H4.83317C3.22234 4.22492 1.9165 5.53075 1.9165 7.14158V14.6416C1.9165 16.2524 3.22234 17.5583 4.83317 17.5583H13.1665Z" fill="black"/>
</svg>
