<svg width="21" height="21" viewBox="0 0 21 21" fill="none" xmlns="http://www.w3.org/2000/svg">
<path fill-rule="evenodd" clip-rule="evenodd" d="M0 10.0801C0 4.51309 4.51297 0.000118492 10.08 0.000118492C10.8206 -0.00360224 11.5591 0.0803143 12.28 0.250118C9.42684 1.06703 7.55951 3.79948 7.83498 6.75447C8.11045 9.70945 10.4507 12.0497 13.4057 12.3251C16.3606 12.6006 19.0931 10.7333 19.91 7.88012C20.0798 8.60103 20.1637 9.33949 20.16 10.0801C20.16 15.6471 15.647 20.1601 10.08 20.1601C4.51297 20.1601 0 15.6471 0 10.0801ZM8.54296 11.6163C5.92799 9.0038 5.54836 4.8978 7.64 1.85012C3.70314 3.01937 1.14688 6.81441 1.54276 10.9021C1.93865 14.9898 5.17565 18.2238 9.26373 18.6158C13.3518 19.0079 17.1444 16.4481 18.31 12.5101C15.2643 14.6046 11.1579 14.2288 8.54296 11.6163Z" fill="#929EAE"/>
</svg>
