<svg width="21" height="21" viewBox="0 0 21 21" fill="none" xmlns="http://www.w3.org/2000/svg">
<path d="M15 11L10.85 6.95C10.3333 6.45 9.896 5.896 9.538 5.288C9.18 4.68 9.00067 4.01734 9 3.3C9 2.38334 9.321 1.60434 9.963 0.963003C10.605 0.32167 11.384 0.000669617 12.3 2.94986e-06C12.8333 2.94986e-06 13.3333 0.11267 13.8 0.338003C14.2667 0.563336 14.6667 0.867336 15 1.25C15.3333 0.86667 15.7333 0.562336 16.2 0.337003C16.6667 0.11167 17.1667 -0.000663717 17.7 2.94986e-06C18.6167 2.94986e-06 19.396 0.321003 20.038 0.963003C20.68 1.605 21.0007 2.384 21 3.3C21 4.01667 20.825 4.67934 20.475 5.288C20.125 5.89667 19.6917 6.45067 19.175 6.95L15 11ZM15 8.2L17.725 5.525C18.0417 5.20834 18.3333 4.87067 18.6 4.512C18.8667 4.15334 19 3.74934 19 3.3C19 2.93334 18.875 2.625 18.625 2.375C18.375 2.125 18.0667 2 17.7 2C17.4667 2 17.2457 2.04567 17.037 2.137C16.8283 2.22834 16.6493 2.366 16.5 2.55L15 4.35L13.5 2.55C13.35 2.36667 13.171 2.229 12.963 2.137C12.755 2.045 12.534 1.99934 12.3 2C11.9333 2 11.625 2.125 11.375 2.375C11.125 2.625 11 2.93334 11 3.3C11 3.75 11.1333 4.15434 11.4 4.513C11.6667 4.87167 11.9583 5.209 12.275 5.525L15 8.2ZM6 16.5L12.95 18.4L18.9 16.55C18.8167 16.4 18.6957 16.2707 18.537 16.162C18.3783 16.0533 18.1993 15.9993 18 16H12.95C12.5 16 12.1417 15.9833 11.875 15.95C11.6083 15.9167 11.3333 15.85 11.05 15.75L8.725 14.975L9.275 13.025L11.3 13.7C11.5833 13.7833 11.9167 13.85 12.3 13.9C12.6833 13.95 13.25 13.9833 14 14C14 13.8167 13.946 13.6417 13.838 13.475C13.73 13.3083 13.6007 13.2 13.45 13.15L7.6 11H6V16.5ZM0 20V9H7.6C7.71667 9 7.83333 9.01267 7.95 9.038C8.06667 9.06334 8.175 9.09234 8.275 9.125L14.15 11.3C14.7 11.5 15.146 11.85 15.488 12.35C15.83 12.85 16.0007 13.4 16 14H18C18.8333 14 19.5417 14.275 20.125 14.825C20.7083 15.375 21 16.1 21 17V18L13 20.5L6 18.55V20H0ZM2 18H4V11H2V18Z" fill="#BFBFBF"/>
</svg>
